<svg width="133" height="45" viewBox="0 0 133 45" fill="none" xmlns="http://www.w3.org/2000/svg">
<path d="M38.8515 10.2317V11.1008C37.9244 11.1298 37.2291 11.2457 36.7655 11.4485C36.302 11.6223 35.9833 11.97 35.8095 12.4915C35.6646 12.984 35.5922 13.7663 35.5922 14.8382V36.3934C35.5922 37.4364 35.6646 38.2187 35.8095 38.7402C35.9833 39.2617 36.302 39.6093 36.7655 39.7832C37.2291 39.957 37.9244 40.0729 38.8515 40.1308V41C38.0403 40.9421 37.0118 40.9131 35.766 40.9131C34.5492 40.8841 33.3034 40.8696 32.0286 40.8696C30.638 40.8696 29.3342 40.8841 28.1174 40.9131C26.9006 40.9131 25.9155 40.9421 25.1622 41V40.1308C26.1473 40.0729 26.8861 39.957 27.3786 39.7832C27.9001 39.6093 28.2478 39.2617 28.4216 38.7402C28.5954 38.2187 28.6823 37.4364 28.6823 36.3934V12.8826H28.9865L18.2089 41.0435H17.5136L5.77993 13.0564V33.8729C5.77993 35.4663 5.86684 36.6976 6.04067 37.5668C6.21451 38.407 6.59114 39.0154 7.17058 39.3921C7.779 39.7397 8.72059 39.986 9.99536 40.1308V41C9.44489 40.9421 8.72059 40.9131 7.82246 40.9131C6.92432 40.8841 6.08413 40.8696 5.30189 40.8696C4.63553 40.8696 3.95469 40.8841 3.25936 40.9131C2.56403 40.9131 1.98459 40.9421 1.52103 41V40.1308C2.44814 39.986 3.14347 39.7397 3.60702 39.3921C4.07057 39.0444 4.37478 38.4794 4.51964 37.6972C4.69347 36.886 4.78039 35.785 4.78039 34.3944V14.8382C4.78039 13.7663 4.69347 12.984 4.51964 12.4915C4.37478 11.97 4.05609 11.6223 3.56356 11.4485C3.10001 11.2457 2.41917 11.1298 1.52103 11.1008V10.2317C1.98459 10.2606 2.56403 10.2896 3.25936 10.3186C3.95469 10.3476 4.63553 10.362 5.30189 10.362C6.54769 10.362 7.76451 10.3476 8.95237 10.3186C10.1692 10.2896 11.2412 10.2606 12.1683 10.2317L21.2945 32.2649L20.208 33.2645L28.9431 10.362C29.4356 10.362 29.9426 10.362 30.4641 10.362C30.9856 10.362 31.5071 10.362 32.0286 10.362C33.3034 10.362 34.5492 10.3476 35.766 10.3186C37.0118 10.2896 38.0403 10.2606 38.8515 10.2317ZM57.1885 9.62326C59.1006 9.62326 60.6651 9.91298 61.8819 10.4924C63.1277 11.0429 64.2287 11.6948 65.1848 12.448C65.7642 12.8826 66.1988 12.9406 66.4885 12.6219C66.8072 12.2742 67.0245 11.4775 67.1404 10.2317H68.1399C68.082 11.3616 68.0385 12.7378 68.0095 14.3602C67.9806 15.9537 67.9661 18.0831 67.9661 20.7485H66.9665C66.8217 19.4158 66.6334 18.2859 66.4016 17.3588C66.1698 16.4027 65.8511 15.5625 65.4455 14.8382C65.0399 14.1139 64.4605 13.4621 63.7072 12.8826C62.9829 12.1583 62.1427 11.6223 61.1866 11.2747C60.2305 10.927 59.231 10.7532 58.188 10.7532C56.6235 10.7532 55.2908 11.1733 54.1899 12.0135C53.0889 12.8247 52.1908 13.9401 51.4955 15.3597C50.8291 16.7794 50.3366 18.3873 50.0179 20.1836C49.6992 21.9509 49.5398 23.7906 49.5398 25.7028C49.5398 27.6439 49.6992 29.5126 50.0179 31.3088C50.3655 33.0761 50.887 34.6551 51.5824 36.0458C52.3067 37.4364 53.2338 38.5374 54.3637 39.3486C55.4936 40.1598 56.8263 40.5654 58.3618 40.5654C59.3179 40.5654 60.274 40.3916 61.2301 40.0439C62.2151 39.6673 63.0553 39.1313 63.7506 38.436C64.8806 37.5668 65.6483 36.4948 66.0539 35.2201C66.4595 33.9163 66.7637 32.1925 66.9665 30.0486H67.9661C67.9661 32.8009 67.9806 35.0318 68.0095 36.7411C68.0385 38.4215 68.082 39.8411 68.1399 41H67.1404C67.0245 39.7542 66.8217 38.972 66.532 38.6533C66.2712 38.3346 65.8221 38.378 65.1848 38.7836C64.1128 39.5369 62.9684 40.2033 61.7516 40.7827C60.5637 41.3332 59.0282 41.6084 57.145 41.6084C54.074 41.6084 51.3796 40.9855 49.0618 39.7397C46.773 38.4939 44.9912 36.6976 43.7165 34.3509C42.4417 32.0042 41.8043 29.1794 41.8043 25.8766C41.8043 22.6317 42.4562 19.7925 43.7599 17.3588C45.0926 14.9251 46.9034 13.0275 49.1922 11.6658C51.5099 10.3041 54.1754 9.62326 57.1885 9.62326ZM99.9142 10.2317V11.1008C99.2768 11.3326 98.596 11.8396 97.8717 12.6219C97.1764 13.4041 96.5245 14.6209 95.9161 16.2723L86.7464 41.0869C86.5146 41.0579 86.2684 41.0435 86.0076 41.0435C85.7469 41.0435 85.4861 41.0435 85.2254 41.0435C84.9936 41.0435 84.7473 41.0435 84.4866 41.0435C84.2259 41.0435 83.9796 41.0579 83.7478 41.0869L72.666 13.8822C72.2604 12.8392 71.8113 12.1293 71.3188 11.7527C70.8263 11.3471 70.3627 11.1298 69.9281 11.1008V10.2317C70.7973 10.2606 71.8113 10.2896 72.9702 10.3186C74.1581 10.3476 75.3459 10.362 76.5338 10.362C77.8665 10.362 79.1123 10.3476 80.2712 10.3186C81.459 10.2896 82.4151 10.2606 83.1394 10.2317V11.1008C82.2123 11.1298 81.488 11.2457 80.9665 11.4485C80.445 11.6223 80.1553 11.97 80.0973 12.4915C80.0394 12.984 80.2132 13.7373 80.6188 14.7513L88.5282 34.8724L87.6156 35.9589L93.6128 19.7925C94.395 17.6195 94.8007 15.9102 94.8296 14.6644C94.8586 13.4186 94.5544 12.5205 93.917 11.97C93.2796 11.4195 92.367 11.1298 91.1791 11.1008V10.2317C92.1642 10.2606 93.0913 10.2896 93.9605 10.3186C94.8296 10.3476 95.7133 10.362 96.6114 10.362C97.2488 10.362 97.8427 10.3476 98.3932 10.3186C98.9726 10.2896 99.4796 10.2606 99.9142 10.2317Z" fill="#101010"/>
<rect x="103.431" y="22.5995" width="26.5846" height="4.91293" fill="url(#paint0_linear_31_2)"/>
<rect x="106.385" y="18.6692" width="26.5846" height="4.91293" fill="url(#paint1_linear_31_2)"/>
<defs>
<linearGradient id="paint0_linear_31_2" x1="103.431" y1="25.056" x2="130.015" y2="25.056" gradientUnits="userSpaceOnUse">
<stop stop-color="#D13434"/>
<stop offset="1" stop-color="#C40101"/>
</linearGradient>
<linearGradient id="paint1_linear_31_2" x1="106.385" y1="21.1257" x2="132.969" y2="21.1257" gradientUnits="userSpaceOnUse">
<stop stop-color="#565CFF"/>
<stop offset="1" stop-color="#030AAC"/>
</linearGradient>
</defs>
</svg>
